HIERARCHY
ROOT Hips
{
	OFFSET 0.000000 0.000000 0.000000 
	CHANNELS 6 Xposition Yposition Zposition Yrotation Xrotation Zrotation
	JOINT Spine
	{
		OFFSET 0.000000 0.072080 0.012321 
		CHANNELS 3 Xrotation Yrotation Zrotation
		JOINT Spine1
		{
			OFFSET 0.000000 0.126984 -0.001294 
			CHANNELS 3 Xrotation Yrotation Zrotation
			JOINT Spine2
			{
				OFFSET 0.000000 0.106559 -0.010096 
				CHANNELS 3 Xrotation Yrotation Zrotation
				JOINT Neck
				{
					OFFSET 0.000000 0.108417 -0.034017 
					CHANNELS 3 Xrotation Yrotation Zrotation
					JOINT Neck1
					{
						OFFSET 0.000000 0.033906 0.007241 
						CHANNELS 3 Xrotation Yrotation Zrotation
						JOINT Head
						{
							OFFSET 0.000000 0.031458 0.006707 
							CHANNELS 3 Xrotation Yrotation Zrotation
							End Site
							{
								OFFSET 0.000000 0.179920 0.000962 
							}
						}
					}
				}
				JOINT LeftShoulder
				{
					OFFSET 0.048002 0.079586 -0.029634 
					CHANNELS 3 Zrotation Xrotation Yrotation
					JOINT LeftArm
					{
						OFFSET 0.096243 -0.008695 -0.014012 
						CHANNELS 3 Zrotation Xrotation Yrotation
						JOINT LeftForeArm
						{
							OFFSET 0.216305 0.000000 0.000000 
							CHANNELS 3 Xrotation Zrotation Yrotation
							JOINT LeftHand
							{
								OFFSET 0.217764 0.000000 0.000000 
								CHANNELS 3 Zrotation Yrotation Xrotation
								JOINT LeftHandThumb1
								{
									OFFSET 0.018582 -0.007835 0.020476 
									CHANNELS 3 Zrotation Xrotation Yrotation
									JOINT LeftHandThumb2
									{
										OFFSET 0.026269 -0.007835 0.022186 
										CHANNELS 3 Zrotation Xrotation Yrotation
										JOINT LeftHandThumb3
										{
											OFFSET 0.035170 -0.010504 0.017018 
											CHANNELS 3 Zrotation Xrotation Yrotation
											End Site
											{
												OFFSET 0.020312 -0.007813 0.007813 
											}
										}
									}
								}
								JOINT LeftHandMiddle1
								{
									OFFSET 0.081749 0.004803 0.003358 
									CHANNELS 3 Zrotation Xrotation Yrotation
									JOINT LeftHandMiddle2
									{
										OFFSET 0.045251 0.000000 0.000000 
										CHANNELS 3 Zrotation Xrotation Yrotation
										JOINT LeftHandMiddle3
										{
											OFFSET 0.029009 0.000000 0.000000 
											CHANNELS 3 Zrotation Xrotation Yrotation
											End Site
											{
												OFFSET 0.017969 0.000000 0.000000 
											}
										}
									}
								}
								JOINT LeftHandIndex1
								{
									OFFSET 0.081207 0.004803 0.021137 
									CHANNELS 3 Zrotation Xrotation Yrotation
									JOINT LeftHandIndex2
									{
										OFFSET 0.043354 0.000000 0.000000 
										CHANNELS 3 Zrotation Xrotation Yrotation
										JOINT LeftHandIndex3
										{
											OFFSET 0.026493 0.000000 0.000000 
											CHANNELS 3 Zrotation Xrotation Yrotation
											End Site
											{
												OFFSET 0.019531 0.000000 0.000000 
											}
										}
									}
								}
								JOINT LeftHandRing1
								{
									OFFSET 0.080666 0.002509 -0.014652 
									CHANNELS 3 Zrotation Xrotation Yrotation
									JOINT LeftHandRing2
									{
										OFFSET 0.042541 0.000000 0.000000 
										CHANNELS 3 Zrotation Xrotation Yrotation
										JOINT LeftHandRing3
										{
											OFFSET 0.029009 0.000000 0.000000 
											CHANNELS 3 Zrotation Xrotation Yrotation
											End Site
											{
												OFFSET 0.015625 0.000000 0.000000 
											}
										}
									}
								}
								JOINT LeftHandPinky1
								{
									OFFSET 0.078227 -0.000612 -0.030993 
									CHANNELS 3 Zrotation Xrotation Yrotation
									JOINT LeftHandPinky2
									{
										OFFSET 0.028721 0.000000 0.000000 
										CHANNELS 3 Zrotation Xrotation Yrotation
										JOINT LeftHandPinky3
										{
											OFFSET 0.021963 0.000000 0.000000 
											CHANNELS 3 Zrotation Xrotation Yrotation
											End Site
											{
												OFFSET 0.022656 0.000000 0.000000 
											}
										}
									}
								}
							}
						}
					}
				}
				JOINT RightShoulder
				{
					OFFSET -0.047970 0.079586 -0.029634 
					CHANNELS 3 Zrotation Xrotation Yrotation
					JOINT RightArm
					{
						OFFSET -0.096274 -0.008695 -0.014012 
						CHANNELS 3 Zrotation Xrotation Yrotation
						JOINT RightForeArm
						{
							OFFSET -0.216305 0.000000 0.000000 
							CHANNELS 3 Xrotation Zrotation Yrotation
							JOINT RightHand
							{
								OFFSET -0.217764 0.000000 0.000000 
								CHANNELS 3 Zrotation Yrotation Xrotation
								JOINT RightHandThumb1
								{
									OFFSET -0.019670 -0.007318 0.019638 
									CHANNELS 3 Zrotation Xrotation Yrotation
									JOINT RightHandThumb2
									{
										OFFSET -0.025498 -0.008492 0.023179 
										CHANNELS 3 Zrotation Xrotation Yrotation
										JOINT RightHandThumb3
										{
											OFFSET -0.034504 -0.010705 0.016680 
											CHANNELS 3 Zrotation Xrotation Yrotation
											End Site
											{
												OFFSET -0.020312 -0.007813 0.007813 
											}
										}
									}
								}
								JOINT RightHandIndex1
								{
									OFFSET -0.081770 0.003825 0.021187 
									CHANNELS 3 Zrotation Xrotation Yrotation
									JOINT RightHandIndex2
									{
										OFFSET -0.042006 0.000000 0.000000 
										CHANNELS 3 Zrotation Xrotation Yrotation
										JOINT RightHandIndex3
										{
											OFFSET -0.026449 0.000000 0.000000 
											CHANNELS 3 Zrotation Xrotation Yrotation
											End Site
											{
												OFFSET -0.020312 0.000000 0.000000 
											}
										}
									}
								}
								JOINT RightHandMiddle1
								{
									OFFSET -0.084059 0.003825 0.003342 
									CHANNELS 3 Zrotation Xrotation Yrotation
									JOINT RightHandMiddle2
									{
										OFFSET -0.043881 0.000000 0.000000 
										CHANNELS 3 Zrotation Xrotation Yrotation
										JOINT RightHandMiddle3
										{
											OFFSET -0.029191 0.000000 0.000000 
											CHANNELS 3 Zrotation Xrotation Yrotation
											End Site
											{
												OFFSET -0.017969 0.000000 0.000000 
											}
										}
									}
								}
								JOINT RightHandRing1
								{
									OFFSET -0.081798 0.003030 -0.015127 
									CHANNELS 3 Zrotation Xrotation Yrotation
									JOINT RightHandRing2
									{
										OFFSET -0.042198 0.000000 0.000000 
										CHANNELS 3 Zrotation Xrotation Yrotation
										JOINT RightHandRing3
										{
											OFFSET -0.026497 0.000000 0.000000 
											CHANNELS 3 Zrotation Xrotation Yrotation
											End Site
											{
												OFFSET -0.017188 0.000000 0.000000 
											}
										}
									}
								}
								JOINT RightHandPinky1
								{
									OFFSET -0.077902 -0.000930 -0.030891 
									CHANNELS 3 Zrotation Xrotation Yrotation
									JOINT RightHandPinky2
									{
										OFFSET -0.028538 0.000000 0.000000 
										CHANNELS 3 Zrotation Xrotation Yrotation
										JOINT RightHandPinky3
										{
											OFFSET -0.021734 0.000000 0.000000 
											CHANNELS 3 Zrotation Xrotation Yrotation
											End Site
											{
												OFFSET -0.022656 0.000000 0.000000 
											}
										}
									}
								}
							}
						}
					}
				}
			}
		}
	}
	JOINT LeftUpLeg
	{
		OFFSET 0.075264 -0.025573 0.000000 
		CHANNELS 3 Xrotation Yrotation Zrotation
		JOINT LeftLeg
		{
			OFFSET 0.000000 -0.326016 -0.013516 
			CHANNELS 3 Xrotation Yrotation Zrotation
			JOINT LeftFoot
			{
				OFFSET 0.000098 -0.306172 -0.006623 
				CHANNELS 3 Xrotation Yrotation Zrotation
				JOINT LeftToeBase
				{
					OFFSET -0.001432 -0.095259 0.064705 
					CHANNELS 3 Xrotation Yrotation Zrotation
					End Site
					{
						OFFSET 0.000000 0.000000 0.079438 
					}
				}
			}
		}
	}
	JOINT RightUpLeg
	{
		OFFSET -0.075264 -0.025573 0.000000 
		CHANNELS 3 Xrotation Yrotation Zrotation
		JOINT RightLeg
		{
			OFFSET 0.000000 -0.326016 -0.013516 
			CHANNELS 3 Xrotation Yrotation Zrotation
			JOINT RightFoot
			{
				OFFSET 0.000098 -0.306172 -0.006623 
				CHANNELS 3 Xrotation Yrotation Zrotation
				JOINT RightToeBase
				{
					OFFSET -0.001432 -0.095259 0.064705 
					CHANNELS 3 Xrotation Yrotation Zrotation
					End Site
					{
						OFFSET 0.000025 0.000000 0.079438 
					}
				}
			}
		}
	}
}
MOTION
Frames: 4
Frame Time: 0.033333
-0.664987 0.739887 0.036212 -87.912201 1.351700 4.916200 4.520400 10.460300 -4.178600 1.885100 16.420000 -2.543200 1.717900 16.387899 -2.842400 4.017500 5.549000 -1.366600 -0.000000 0.000000 -0.000000 -10.182100 38.906502 -2.151600 -12.820600 3.737800 2.401300 -63.352600 16.532200 -2.179500 -0.000000 0.000000 -17.514400 -14.081300 12.811200 42.158901 -3.524300 11.413800 9.163000 6.599000 -3.453400 7.645600 2.980000 -1.701200 8.653300 -25.886600 -1.339100 1.719400 -14.832500 -0.198900 0.757100 -9.115400 -0.010900 0.249500 -12.037700 -0.198400 -1.780700 -7.163900 -0.078900 0.771300 -8.058000 -0.018300 -0.224500 -34.598499 -1.912900 7.150800 -17.852699 0.077300 0.296600 -14.289200 0.185700 -0.035500 -40.619900 -2.820600 9.869900 -25.458599 -0.121300 -0.264000 -11.313900 -0.101000 0.818800 12.747700 6.063300 21.402399 61.808498 0.635900 3.141500 0.000000 -0.000000 16.023899 -12.233400 27.334200 18.509800 4.773300 13.758100 -10.185800 -6.303000 -2.899600 -6.420600 -1.771000 -1.162700 -3.598900 11.945700 -0.369400 0.842800 4.982300 -0.054000 -0.881900 9.263700 -0.086500 1.037800 22.350401 -1.275800 -3.265900 9.657600 -0.136500 -0.987100 7.052000 -0.026500 -0.245600 28.949900 -1.835300 -8.223100 11.361100 0.024900 -0.546500 4.511500 0.002200 1.763400 32.765400 -2.587600 -11.665700 15.926900 -0.126800 -0.104300 3.219200 -0.192500 2.106700 -9.357400 1.057900 -13.471800 11.794700 6.135400 3.383400 -3.998600 3.877800 4.722800 -3.051000 -0.000000 -0.000000 -19.628500 -3.316200 -3.880900 66.586502 -10.093600 -5.007000 2.125100 -5.665600 3.732100 -1.350700 0.000000 -0.000000 
-0.709630 0.745872 0.032962 -87.227898 1.437100 4.059800 4.209200 9.040900 -3.283500 1.856800 15.957200 -2.400500 1.691600 15.921600 -2.699800 4.480500 5.848500 -1.479300 -0.000000 0.000000 -0.000000 -10.283600 39.842098 -2.177600 -11.952900 3.832100 1.074000 -60.460899 19.768600 -7.903100 0.000000 -0.000000 -19.562000 -11.862300 8.544400 35.135399 -2.974200 10.841300 9.737100 6.269200 -3.018600 8.070700 2.987900 -1.704400 8.636300 -23.574900 -1.225100 1.646400 -12.153300 -0.158000 0.772700 -6.465000 -0.006800 0.257300 -9.447300 -0.216300 -1.983300 -4.745600 -0.046200 0.778000 -5.306500 -0.018800 -0.219900 -32.124298 -1.802300 7.215800 -15.322400 0.065800 0.301300 -11.820300 0.160600 -0.033300 -38.274799 -2.513300 9.903900 -22.994900 -0.111500 -0.253400 -8.868200 -0.081500 0.828000 13.417600 6.202800 21.200199 62.756401 -5.172500 -0.591300 -0.000000 -0.000000 9.560300 -9.470700 28.381100 24.290501 4.773800 13.756900 -10.180800 -6.016700 0.928600 -7.104000 -1.507600 -0.205700 0.654200 9.907600 -0.460200 0.343400 1.727900 -0.005700 -0.820800 5.616200 -0.077400 1.107500 17.357800 -0.985400 -4.212000 3.494100 -0.024000 -0.883100 0.151300 -0.005400 -0.120800 21.781900 -1.414000 -8.419100 4.108100 0.015000 -0.414500 -4.570100 -0.086300 1.925100 23.319099 -1.744100 -12.479600 5.761900 -0.037000 0.071300 -7.210900 -0.110500 2.304200 -2.917000 1.903400 -11.977400 6.414300 5.354500 3.566700 -1.963600 1.541200 3.845300 -5.749500 0.000000 -0.000000 -26.140800 -1.787300 -2.221200 64.668503 -10.098000 -4.522800 -4.039300 -5.301700 2.201800 0.099400 -0.000000 -0.000000 
-0.754596 0.747282 0.029286 -86.010803 1.668300 3.355100 3.971600 7.476800 -2.712600 1.823900 15.455400 -2.314800 1.658900 15.415900 -2.615100 4.697000 6.107700 -1.399000 -0.000000 0.000000 -0.000000 -11.173900 40.420601 -1.505000 -10.264000 3.903700 -0.751900 -56.685902 23.565701 -13.133400 0.000000 -0.000000 -23.037701 -10.972800 5.228300 24.979099 -3.716700 11.586100 9.256300 6.474100 -3.693200 8.204900 3.040600 -1.726000 8.519900 -20.948299 -1.093300 1.587700 -9.121300 -0.110900 0.788000 -3.423200 -0.001700 0.266000 -6.555600 -0.226800 -2.202300 -2.284500 -0.012600 0.783400 -2.094800 -0.019200 -0.214500 -29.301701 -1.671000 7.262500 -12.318000 0.052500 0.307700 -8.820000 0.130100 -0.029300 -35.727798 -2.180500 9.759800 -19.946301 -0.098600 -0.240800 -5.850800 -0.056900 0.838100 14.026700 6.293600 20.771299 62.807800 -10.792700 -5.031900 -0.000000 0.000000 5.031200 -8.037900 27.707600 29.763800 4.772600 13.759100 -10.190500 -6.350300 3.986500 -6.452100 -1.341200 0.518900 3.005800 7.261700 -0.393600 0.039000 0.160200 0.016400 -0.790400 3.783200 -0.074500 1.142800 13.775200 -0.778100 -4.953000 0.398000 0.028200 -0.826500 -3.539000 -0.000300 -0.053300 17.145000 -1.143600 -8.593300 0.473200 0.003800 -0.349000 -9.437900 -0.144000 2.005500 17.444000 -1.219400 -12.779400 0.661500 -0.004100 0.164800 -12.711000 -0.082200 2.413300 1.788300 3.717200 -10.058400 5.288600 2.783800 2.894500 -1.823900 0.276300 3.178400 -8.267500 -0.000100 -0.000000 -31.743299 -1.046800 -1.414600 59.428200 -10.083400 -4.072600 -7.708500 -4.269700 1.399100 0.972900 -0.000000 0.000000 
-0.800455 0.744015 0.025394 -84.333801 2.156500 2.794200 3.679300 5.867200 -2.438800 1.713200 14.956600 -2.268100 1.545900 14.913700 -2.569000 4.663200 6.301100 -1.080100 -0.000000 0.000000 -0.000000 -12.455700 40.623901 -0.295900 -8.101200 3.916600 -2.717400 -52.322701 26.375401 -18.192699 0.000000 0.000000 -27.174200 -10.593800 3.009500 15.177400 -5.113800 13.040800 7.720900 6.908700 -5.058200 8.349500 3.132300 -1.764000 8.316500 -18.929899 -0.989700 1.494600 -6.441500 -0.068600 0.799500 -0.661100 0.003300 0.273600 -4.392400 -0.229300 -2.456300 -0.567900 0.010900 0.786300 0.814700 -0.019200 -0.209700 -26.845501 -1.547600 7.183200 -9.486000 0.040300 0.314200 -5.875400 0.100500 -0.023800 -33.529099 -1.916800 9.411100 -16.765301 -0.084500 -0.228400 -2.709000 -0.030700 0.847300 14.477100 6.295100 19.974100 62.276798 -15.531800 -10.270300 -0.000000 -0.000000 2.828300 -7.285400 24.320400 33.244202 4.769900 13.764100 -10.212600 -7.558000 4.562600 -4.728600 -1.429900 0.627500 3.247000 2.967900 -0.149300 0.107100 0.063900 0.017700 -0.783900 3.582900 -0.074300 1.146600 10.629400 -0.594700 -5.370200 0.066200 0.033800 -0.812100 -4.287700 0.000200 -0.039600 14.130200 -0.974500 -8.820800 0.027500 0.001800 -0.337700 -10.427300 -0.156500 2.021200 14.315700 -1.023900 -12.650000 0.004500 -0.000400 0.177000 -13.638600 -0.078400 2.432000 4.899400 6.354000 -7.619300 5.835700 -1.262700 1.438800 -4.176400 -0.052700 2.917400 -9.430100 0.000000 -0.000000 -36.009899 -1.068000 -1.451300 49.997700 -9.709900 -3.619500 -9.025500 -2.673400 1.116400 1.174600 0.000000 0.000000 
